<svg xmlns="http://www.w3.org/2000/svg" width="460" height="609" viewBox="0 0 460 609" fill="none"><circle cx="229.988" cy="304.744" r="225.325" stroke="white" stroke-width="8"></circle><path d="M65.9665 103.241L58.0789 93.3613L64.0624 50.3932L73.7488 43.3556L69.1312 79.5534L68.1623 88.2653L65.9665 103.241ZM66.2239 119.78L32.4819 73.3378L41.1068 67.0714L74.8488 113.513L66.2239 119.78ZM98.6005 96.2566L65.4432 88.0108L66.5696 77.5625L108.685 88.9298L98.6005 96.2566Z" fill="white"></path><path d="M155.364 71.3944C151.1 72.7798 146.946 73.3533 142.902 73.1152C138.858 72.877 135.105 71.9408 131.642 70.3066C128.163 68.6205 125.146 66.324 122.592 63.4174C120.021 60.4587 118.077 56.9515 116.759 52.8958C115.441 48.8401 114.961 44.8859 115.319 41.0331C115.66 37.1284 116.751 33.4973 118.591 30.1398C120.415 26.7304 122.893 23.7409 126.025 21.1713C129.156 18.6017 132.828 16.6327 137.04 15.2642C141.303 13.8789 145.431 13.3137 149.423 13.5688C153.467 13.807 157.229 14.7691 160.708 16.4553C164.171 18.0895 167.188 20.3859 169.759 23.3446C172.313 26.2513 174.249 29.7325 175.566 33.7882C176.884 37.8438 177.373 41.8241 177.032 45.7288C176.691 49.6336 175.6 53.2647 173.759 56.6221C171.918 59.9795 169.432 62.9431 166.3 65.5127C163.221 68.0654 159.575 70.026 155.364 71.3944ZM152.397 62.5285C155.152 61.6331 157.548 60.3373 159.584 58.6411C161.62 56.9449 163.217 54.9601 164.375 52.6867C165.516 50.3614 166.183 47.9027 166.376 45.3108C166.604 42.65 166.261 39.9157 165.349 37.1079C164.437 34.3002 163.115 31.9129 161.384 29.946C159.688 27.9103 157.703 26.3133 155.429 25.1549C153.139 23.9446 150.672 23.2516 148.028 23.0759C145.384 22.9002 142.684 23.2601 139.929 24.1555C137.173 25.0509 134.777 26.3467 132.741 28.0429C130.758 29.7222 129.169 31.733 127.976 34.0752C126.817 36.3486 126.124 38.8157 125.897 41.4765C125.704 44.0684 126.064 46.7683 126.976 49.5761C127.872 52.3318 129.167 54.7276 130.864 56.7633C132.612 58.7821 134.631 60.3967 136.921 61.607C139.195 62.7654 141.653 63.4324 144.297 63.6081C146.941 63.7837 149.641 63.4239 152.397 62.5285Z" fill="white"></path><path d="M211.299 58.1999V0.794678H234.918C240.002 0.794678 244.348 1.61475 247.957 3.25491C251.62 4.89505 254.435 7.24594 256.404 10.3075C258.372 13.3692 259.356 17.0048 259.356 21.2145C259.356 25.4243 258.372 29.0599 256.404 32.1215C254.435 35.1285 251.62 37.452 247.957 39.0922C244.348 40.6777 240.002 41.4704 234.918 41.4704H217.204L221.96 36.632V58.1999H211.299ZM248.859 58.1999L234.344 37.37H245.743L260.34 58.1999H248.859ZM221.96 37.7801L217.204 32.6956H234.426C239.127 32.6956 242.654 31.6842 245.004 29.6613C247.41 27.6385 248.613 24.8229 248.613 21.2145C248.613 17.5515 247.41 14.736 245.004 12.7678C242.654 10.7996 239.127 9.8155 234.426 9.8155H217.204L221.96 4.56702V37.7801Z" fill="white"></path><path d="M308.39 69.4232L323.341 23.4068L305.247 17.5276L308.034 8.94825L354.362 24.0012L351.575 32.5805L333.48 26.7013L318.529 72.7176L308.39 69.4232Z" fill="white"></path><path d="M358.938 89.2626L413.579 58.0047L422.071 64.1746L409.294 125.849L400.271 119.293L412.708 64.366L416.158 66.8726L367.828 95.7218L358.938 89.2626ZM376.367 85.5041L383.606 80.4239L408.684 98.6446L406.09 107.099L376.367 85.5041Z" fill="white"></path><path d="M391.298 506.167L399.185 516.047L393.202 559.015L383.515 566.053L388.133 529.855L389.102 521.143L391.298 506.167ZM391.04 489.629L424.782 536.071L416.157 542.337L382.415 495.895L391.04 489.629ZM358.664 513.152L391.821 521.398L390.695 531.846L348.579 520.479L358.664 513.152Z" fill="white"></path><path d="M301.901 538.014C306.164 536.629 310.318 536.055 314.362 536.293C318.406 536.531 322.159 537.468 325.622 539.102C329.101 540.788 332.118 543.084 334.672 545.991C337.243 548.95 339.187 552.457 340.505 556.513C341.823 560.568 342.303 564.523 341.945 568.375C341.604 572.28 340.514 575.911 338.673 579.269C336.849 582.678 334.371 585.668 331.239 588.237C328.108 590.807 324.436 592.776 320.225 594.144C315.961 595.53 311.833 596.095 307.841 595.84C303.797 595.601 300.036 594.639 296.556 592.953C293.093 591.319 290.077 589.022 287.506 586.064C284.952 583.157 283.016 579.676 281.698 575.62C280.38 571.565 279.892 567.584 280.233 563.68C280.573 559.775 281.664 556.144 283.505 552.786C285.346 549.429 287.832 546.465 290.964 543.896C294.043 541.343 297.689 539.382 301.901 538.014ZM304.867 546.88C302.112 547.775 299.716 549.071 297.68 550.767C295.645 552.464 294.048 554.448 292.889 556.722C291.748 559.047 291.081 561.506 290.888 564.098C290.66 566.758 291.003 569.493 291.915 572.301C292.827 575.108 294.149 577.496 295.88 579.462C297.577 581.498 299.561 583.095 301.835 584.253C304.125 585.464 306.592 586.157 309.236 586.333C311.88 586.508 314.58 586.148 317.336 585.253C320.091 584.358 322.487 583.062 324.523 581.366C326.507 579.686 328.095 577.675 329.289 575.333C330.447 573.06 331.14 570.593 331.368 567.932C331.56 565.34 331.2 562.64 330.288 559.832C329.393 557.077 328.097 554.681 326.401 552.645C324.652 550.626 322.633 549.012 320.343 547.801C318.07 546.643 315.611 545.976 312.967 545.8C310.323 545.625 307.623 545.985 304.867 546.88Z" fill="white"></path><path d="M245.965 551.208L245.965 608.614L222.347 608.614C217.262 608.614 212.916 607.794 209.307 606.154C205.644 604.513 202.829 602.162 200.861 599.101C198.892 596.039 197.908 592.404 197.908 588.194C197.908 583.984 198.892 580.348 200.861 577.287C202.829 574.28 205.644 571.956 209.307 570.316C212.916 568.731 217.262 567.938 222.347 567.938L240.06 567.938L235.304 572.776L235.304 551.208L245.965 551.208ZM208.405 551.208L222.921 572.038L211.522 572.038L196.924 551.208L208.405 551.208ZM235.304 571.628L240.06 576.713L222.839 576.713C218.137 576.713 214.611 577.724 212.26 579.747C209.854 581.77 208.651 584.586 208.651 588.194C208.651 591.857 209.854 594.672 212.26 596.641C214.611 598.609 218.137 599.593 222.839 599.593L240.06 599.593L235.304 604.841L235.304 571.628Z" fill="white"></path><path d="M148.875 539.985L133.923 586.002L152.018 591.881L149.23 600.46L102.902 585.407L105.689 576.828L123.784 582.707L138.735 536.691L148.875 539.985Z" fill="white"></path><path d="M98.3261 520.146L43.6853 551.404L35.1931 545.234L47.9699 483.56L56.9929 490.115L44.5565 545.042L41.1065 542.536L89.4358 513.687L98.3261 520.146ZM80.8971 523.904L73.6583 528.985L48.5797 510.764L51.1743 502.31L80.8971 523.904Z" fill="white"></path></svg>