<svg width="30" height="31" viewBox="0 0 30 31" fill="none" xmlns="http://www.w3.org/2000/svg">
<path fill-rule="evenodd" clip-rule="evenodd" d="M16.1969 0.977521C22.4896 1.19145 26.5056 6.77036 28.337 12.5882C30.0404 17.9994 29.3463 24.2552 24.5433 27.4913C19.9521 30.5847 14.1167 28.3586 9.52917 25.2602C4.57422 21.9137 -0.443191 17.3066 1.10662 11.6625C2.87412 5.22558 9.30539 0.743237 16.1969 0.977521Z" fill="#DD234B"/>
<path d="M14.3315 20.1404C13.4018 20.1404 12.574 19.9814 11.848 19.6635C11.1221 19.3456 10.549 18.9132 10.1287 18.3664C9.70843 17.8069 9.47282 17.1837 9.42188 16.497H12.6504C12.6886 16.8658 12.8605 17.1647 13.1662 17.3936C13.4719 17.6225 13.8476 17.7369 14.2933 17.7369C14.7009 17.7369 15.0129 17.6606 15.2294 17.508C15.4586 17.3427 15.5733 17.1329 15.5733 16.8785C15.5733 16.5733 15.4141 16.3508 15.0957 16.2109C14.7773 16.0583 14.2615 15.893 13.5483 15.715C12.7841 15.5369 12.1473 15.3525 11.6379 15.1618C11.1285 14.9583 10.6891 14.6468 10.3197 14.2271C9.95041 13.7947 9.76574 13.2161 9.76574 12.4913C9.76574 11.8809 9.93131 11.3277 10.2624 10.8317C10.6063 10.3231 11.103 9.92249 11.7525 9.63001C12.4148 9.33753 13.198 9.19128 14.1023 9.19128C15.4395 9.19128 16.4902 9.52192 17.2544 10.1832C18.0313 10.8445 18.477 11.7219 18.5916 12.8155H15.5733C15.5223 12.4468 15.3567 12.1543 15.0766 11.9381C14.8091 11.7219 14.4525 11.6138 14.0068 11.6138C13.6247 11.6138 13.3318 11.6901 13.128 11.8427C12.9242 11.9826 12.8223 12.1797 12.8223 12.434C12.8223 12.7392 12.9815 12.9681 13.2999 13.1207C13.631 13.2733 14.1405 13.4259 14.8282 13.5785C15.6178 13.782 16.261 13.9855 16.7577 14.189C17.2544 14.3797 17.6874 14.6976 18.0567 15.1427C18.4388 15.5751 18.6362 16.16 18.6489 16.8976C18.6489 17.5207 18.4706 18.0803 18.114 18.5762C17.7702 19.0594 17.2671 19.4409 16.6049 19.7207C15.9553 20.0005 15.1975 20.1404 14.3315 20.1404Z" fill="white"/>
<ellipse cx="21.2828" cy="18.4205" rx="1.61095" ry="1.60854" fill="white"/>
</svg>
