<svg xmlns="http://www.w3.org/2000/svg" fill="none" height="37" viewBox="0 0 137 37" width="137"><g fill="#a98c5d"><path d="m29.2415 2.06348c1.4664 0 2.6024.29058 3.408.87179.4012.28523.7221.65446.9359 1.0768.2137.42234.3142.88554.2929 1.35079.0075.55575-.1681 1.1006-.5038 1.56322-.3422.4651-.8289.82514-1.3969 1.0334.7764.17679 1.4736.57078 1.9949 1.12735.4912.53134.7548 1.20867.7414 1.90527.009.5086-.1043 1.0128-.3318 1.4768-.2214.4391-.5509.825-.9626 1.1273-.4477.324-.9596.5652-1.5074.7103-.6506.173-1.3255.2566-2.0029.248h-4.563v-12.47598zm-1.4541 5.26095h1.3026c.6075.03591 1.2108-.11337 1.7162-.42464.1991-.1504.3565-.34179.4597-.55858.1032-.21678.1492-.45288.1342-.68904.017-.23801-.028-.47629-.1313-.69519-.1032-.2189-.2618-.41212-.4626-.56367-.5022-.31842-1.1069-.47197-1.7162-.43588h-1.3026zm1.9579 5.28347c.6302.0322 1.2525-.1408 1.7572-.4885.2021-.1629.364-.3635.4748-.5884.1109-.2248.1682-.4687.1682-.7155s-.0573-.4908-.1682-.7156c-.1108-.22489-.2727-.4255-.4748-.58844-.508-.3405-1.1289-.50913-1.7572-.47725h-1.9579v3.57369z"></path><path d="m41.5748 2.06348h8.3682v1.91272h-5.9229v3.23172h5.4601v1.93153h-5.4601v3.48725h5.9598v1.9127h-8.4174z"></path><path d="m58.4874 2.06348 4.2311 8.35742 4.1902-8.35742h2.6625l-6.9305 12.97202-6.9263-12.97202z"></path><path d="m75.8872 2.06348h8.3846v1.91272h-5.927v3.23172h5.46v1.93153h-5.46v3.48725h5.9638v1.9127h-8.4214z"></path><path d="m99.935 14.5394h-8.0815v-12.47592h2.5149v10.56322h5.5666z"></path><path d="m41.9885 34.7939v-12.476h2.5149v5.1444h6.3325v-5.1444h2.515v12.476h-2.515v-5.4001h-6.3325v5.4001z"></path><path d="m66.4459 22.1109c.9453-.003 1.8811.1735 2.7484.5186.8249.3266 1.5742.7947 2.2077 1.3791.6328.5869 1.1326 1.2829 1.4706 2.048.3558.7977.5368 1.652.5325 2.514.0064.8592-.1776 1.7107-.5407 2.5027-.346.7609-.8463 1.4547-1.4746 2.0443-.6316.5874-1.3814 1.057-2.2078 1.3828-.8618.3397-1.7899.515-2.7279.515s-1.8662-.1753-2.728-.515c-.8264-.3258-1.5761-.7954-2.2077-1.3828-.627-.5898-1.1261-1.2835-1.4706-2.0443-.3631-.792-.547-1.6435-.5406-2.5027-.0062-1.7035.7158-3.3414 2.0112-4.562.643-.6012 1.4114-1.0774 2.2594-1.4002.848-.3229 1.7582-.4856 2.6763-.4787zm0 10.7511c.6202.0076 1.2345-.1118 1.7981-.3494.5286-.2256 1.0033-.5449 1.3968-.9395.3959-.399.7058-.8631.9134-1.3679.2195-.5265.3306-1.0859.3277-1.6496.0025-.5662-.1086-1.128-.3277-1.6573-.2045-.5083-.5147-.9754-.9134-1.3753-.3916-.3946-.867-.7117-1.3968-.932-.5673-.2265-1.1794-.3434-1.7981-.3434s-1.2309.1169-1.7982.3434c-.5292.2213-1.0042.5383-1.3967.932-.3973.4008-.7073.8677-.9134 1.3753-.2178.5295-.3275 1.0913-.3236 1.6573-.0043.5635.1054 1.1229.3236 1.6496.2092.5041.5189.968.9134 1.3679.3972.3957.8761.715 1.409.9395.5598.2361 1.1698.3554 1.7859.3494z"></path><path d="m79.2827 22.3179h2.515v7.5381c-.0529.8227.2255 1.6345.7823 2.2811.2762.2617.6069.4698.9724.6119.3656.1421.7585.2154 1.1556.2154.397 0 .7899-.0733 1.1555-.2154.3655-.1421.6962-.3502.9724-.6119.5519-.6486.8271-1.4596.7741-2.2811v-7.5381h2.515v7.5532c.0066.7072-.1196 1.4101-.3728 2.0781-.2321.6048-.6005 1.1579-1.0813 1.6233-.4806.4564-1.0615.8138-1.704 1.0485-1.4518.5033-3.0539.5033-4.5057 0-.6465-.2331-1.2284-.5951-1.7039-1.0597-.4763-.4686-.8441-1.0208-1.0813-1.6234-.2609-.6624-.39-1.3625-.381-2.0668z"></path><path d="m97.1456 31.393c1.4555 1.0947 2.8594 1.6409 4.2104 1.6384.606.0309 1.206-.118 1.712-.4246.203-.1296.368-.3038.479-.5066s.165-.4279.156-.6546c.009-.298-.097-.5893-.299-.823-.32-.3171-.705-.5726-1.134-.7515l-2.2735-.9921c-.8194-.2908-1.55-.7587-2.13-1.3641-.4118-.5213-.6249-1.1527-.6062-1.7963-.0138-.5089.1002-1.0138.3331-1.4758.233-.462.5787-.8687 1.0104-1.1885.4216-.3133.9058-.5482 1.4252-.6914.552-.1567 1.127-.2352 1.704-.233.344.0015.686.0304 1.024.0865.34.0541.673.1372.996.248.309.1003.608.2261.892.3758.27.1451.524.3137.758.5035v2.39c-.524-.495-1.133-.9088-1.802-1.2251-.599-.2774-1.258-.4264-1.929-.4359-.514-.0264-1.023.1059-1.446.3758-.178.1207-.3203.2793-.4159.462-.0957.1826-.1414.3839-.1331.5864-.0046.2725.0939.5381.2786.7516.2804.2774.6244.4943 1.0074.6351l2.122.9056c.493.2031.967.4432 1.417.7178.351.2063.665.4597.934.7515.229.2654.403.5674.512.8906.107.3447.159.7015.156 1.0597.009.5661-.131 1.1259-.41 1.631-.256.4601-.62.863-1.065 1.1799-.458.3204-.975.561-1.528.7102-.583.16-1.189.241-1.798.2405-.772.001-1.5388-.1158-2.2691-.3457-.6804-.1996-1.3179-.5061-1.8842-.9056z"></path><path d="m113.431 22.3179h8.385v1.9127h-5.927v3.2317h5.46v1.9315h-5.46v3.4873h5.964v1.9128h-8.422z"></path><path d="m3.12527 0h-3.0720216l-.0532484.0263048 22.9624 36.7815952h3.1416z"></path><path d="m136.996 0h-2.724v36.8079h2.724z"></path></g></svg>